<svg width="119" height="36" viewBox="0 0 119 36" fill="none" xmlns="http://www.w3.org/2000/svg">
<path d="M28.0449 33.6639C28.0449 33.8771 27.9875 34.0902 27.8726 34.3033C27.7741 34.5164 27.6017 34.623 27.3555 34.623C27.1749 34.623 27.0108 34.6066 26.863 34.5738C26.7153 34.5246 26.5512 34.5 26.3706 34.5C26.108 34.5 25.9684 34.5491 25.952 34.6475C25.952 34.7459 25.9356 34.8525 25.9028 34.9672C25.8699 35.0984 25.7468 35.2131 25.5334 35.3115C25.3364 35.4098 24.9096 35.459 24.2531 35.459C23.8755 35.459 23.498 35.4262 23.1204 35.3607C22.7593 35.2951 22.3899 35.2623 22.0124 35.2623C21.7334 35.2623 21.4297 35.3033 21.1014 35.3853C20.97 35.2213 20.8223 35.0984 20.6582 35.0164C20.5104 34.9344 20.3627 34.8442 20.215 34.7459C20.0836 34.664 19.9688 34.5574 19.8703 34.4262C19.7718 34.2951 19.7225 34.0983 19.7225 33.8361C19.7225 33.6557 19.6077 33.5655 19.3778 33.5655C19.2957 33.5655 19.2137 33.5738 19.1316 33.5902C19.066 33.6065 18.9921 33.6148 18.91 33.6148C18.8279 33.6148 18.754 33.5983 18.6884 33.5655C18.6391 33.5164 18.6146 33.4508 18.6146 33.3688C18.6146 33.3361 18.6228 33.3114 18.6391 33.2951C18.2944 33.3114 18.0318 33.4263 17.8512 33.6393C17.6706 33.8524 17.4737 34.0738 17.2603 34.3033C17.1126 34.4508 16.9566 34.5656 16.7924 34.6475C16.6283 34.7131 16.456 34.7705 16.2754 34.8197C16.1113 34.8852 15.9307 34.959 15.7337 35.0409C15.5531 35.1229 15.3726 35.2459 15.192 35.4098C15.0443 35.5574 14.7981 35.6639 14.4533 35.7295C14.1086 35.8115 13.7393 35.8688 13.3453 35.9016C12.9678 35.9508 12.5902 35.9754 12.2127 35.9754C11.8516 35.9918 11.5643 36 11.3509 36C10.8585 36 10.4563 35.959 10.1445 35.8771C9.84899 35.7951 9.57811 35.6886 9.33189 35.5574C9.10205 35.4426 8.85583 35.3115 8.59321 35.1639C8.3306 35.0328 7.99408 34.9017 7.58373 34.7705C7.14049 34.6393 6.60701 34.3934 5.98324 34.0328C5.35947 33.6722 4.76033 33.2541 4.18581 32.7786C3.6277 32.3033 3.15167 31.795 2.75771 31.2541C2.36375 30.6967 2.16677 30.1639 2.16677 29.6557C2.16677 29.4262 2.10932 29.1967 1.99441 28.9672C1.89592 28.7213 1.7646 28.4918 1.60046 28.2787C1.45272 28.0492 1.29678 27.8279 1.13263 27.6148C0.968483 27.3853 0.837161 27.1721 0.738672 26.9754C0.426791 26.3525 0.221601 25.6967 0.123112 25.0082C0.0410371 24.3196 0 23.6311 0 22.9426C0 22.3033 0.0492448 21.6967 0.147734 21.123C0.246224 20.5328 0.369336 19.959 0.51707 19.4016C0.664805 18.8279 0.812539 18.2623 0.960273 17.7049C1.12442 17.1476 1.27215 16.5656 1.40348 15.959C1.48555 15.5328 1.60046 15.2131 1.74819 15C1.89592 14.7705 2.06007 14.5737 2.24064 14.4098C2.43762 14.2459 2.64281 14.0901 2.8562 13.9427C3.08601 13.795 3.31581 13.582 3.54562 13.3032C3.64411 13.1885 3.70157 13.0902 3.71798 13.0082C3.75081 12.9098 3.77544 12.8361 3.79185 12.7869C3.82468 12.7213 3.87393 12.6803 3.93958 12.664C4.02166 12.6312 4.16939 12.6147 4.38279 12.6147C4.51411 12.6147 4.6126 12.5738 4.67825 12.4918C4.76033 12.4098 4.8342 12.3114 4.89986 12.1967C4.96551 12.082 5.02297 11.9672 5.07221 11.8525C5.13787 11.7213 5.21995 11.6229 5.31844 11.5574C5.41693 11.4918 5.54004 11.4426 5.68777 11.4098C5.83551 11.377 5.99145 11.3525 6.1556 11.336C6.31974 11.3197 6.47569 11.3033 6.62342 11.2869C6.78757 11.2705 6.9353 11.2377 7.06663 11.1886C7.41134 11.0409 7.69042 10.9098 7.90379 10.7951C8.13362 10.6803 8.34699 10.582 8.54397 10.5C8.75734 10.4017 8.99537 10.3279 9.25806 10.2787C9.52067 10.2295 9.86538 10.205 10.2921 10.205C10.8503 10.205 11.4002 10.2787 11.9419 10.4262C12.4999 10.5574 13.0498 10.7049 13.5916 10.8689C14.1332 11.0328 14.675 11.1886 15.2166 11.336C15.7584 11.4672 16.3164 11.5327 16.8909 11.5327C17.3506 11.5327 17.7117 11.4344 17.9743 11.2377C18.2534 11.0409 18.4586 10.7869 18.5899 10.4754C18.7376 10.164 18.8279 9.8197 18.8607 9.44262C18.91 9.06555 18.9346 8.69673 18.9346 8.3361C18.9346 7.69668 18.8936 7.06558 18.8115 6.44262C18.7294 5.80328 18.672 5.17213 18.6391 4.54918L18.4176 4.64754C18.2534 4.64754 18.1056 4.60656 17.9743 4.52459C17.843 4.42623 17.7199 4.32787 17.605 4.22951C17.4901 4.11476 17.367 4.0164 17.2357 3.93443C17.1044 3.83607 16.9566 3.78689 16.7924 3.78689C16.6119 3.78689 16.497 3.83607 16.4478 3.93443C16.3985 4.0164 16.3164 4.09836 16.2015 4.18033C16.021 4.19672 15.8322 4.21312 15.6352 4.22951C15.4546 4.22951 15.2741 4.22951 15.0935 4.22951H14.0101C13.7803 4.22951 13.5177 4.16394 13.2222 4.03279C12.9431 3.88525 12.6723 3.70492 12.4097 3.4918C12.147 3.26229 11.9255 3.02459 11.7449 2.77869C11.5808 2.5164 11.4987 2.2623 11.4987 2.01639C11.4987 1.80328 11.5643 1.58197 11.6956 1.35246C11.8434 1.10656 12.0158 0.885246 12.2127 0.688525C12.4261 0.491803 12.6559 0.336063 12.9022 0.221311C13.1483 0.0901637 13.3863 0.0245902 13.6162 0.0245902C13.8295 0.0245902 14.0265 0.0819675 14.2071 0.196721C14.3877 0.295082 14.5847 0.344262 14.7981 0.344262C15.1592 0.344262 15.5039 0.286883 15.8322 0.172131C16.1769 0.0573773 16.538 0 16.9156 0C17.2932 0 17.6461 0.0655735 17.9743 0.196721C18.3191 0.311473 18.6802 0.368852 19.0577 0.368852C19.3368 0.368852 19.6158 0.360653 19.8949 0.344262C20.1904 0.327871 20.4776 0.319672 20.7567 0.319672C21.0521 0.319672 21.3476 0.344262 21.6431 0.393443C21.9549 0.442623 22.2422 0.540984 22.5048 0.688525V0.836066C22.5048 1.06558 22.5295 1.29508 22.5787 1.52459C22.6444 1.7377 22.7101 1.95901 22.7757 2.18852C22.8578 2.40164 22.9234 2.61476 22.9727 2.82787C23.0383 3.04098 23.0712 3.26229 23.0712 3.4918C23.0712 3.78689 22.9973 4.07377 22.8496 4.35246C22.7183 4.61475 22.6526 4.90164 22.6526 5.21311C22.6526 5.78689 22.7183 6.36065 22.8496 6.93443C22.9809 7.49178 23.0466 8.05739 23.0466 8.63119C23.0466 10.0738 23.0383 11.5164 23.0219 12.9591C23.0055 14.3852 22.9973 15.8279 22.9973 17.2869C22.9973 18.7623 22.9481 20.2295 22.8496 21.6885C22.7511 23.1311 22.7018 24.5902 22.7018 26.0656C22.7018 26.6066 22.7265 27.2214 22.7757 27.9099C22.825 28.582 22.9563 29.2213 23.1697 29.8278C23.383 30.418 23.695 30.9181 24.1053 31.3279C24.5321 31.7377 25.1149 31.9427 25.8535 31.9427C26.0013 31.9427 26.1407 31.9344 26.2721 31.918C26.4198 31.8852 26.5676 31.8689 26.7153 31.8689C26.9287 31.8689 27.1174 31.9262 27.2816 32.041C27.4458 32.1558 27.5853 32.3033 27.7002 32.4836C27.8151 32.6639 27.8972 32.8606 27.9464 33.0737C28.012 33.2869 28.0449 33.4836 28.0449 33.6639ZM19.107 21.4672C19.107 20.8606 19.0495 20.2131 18.9346 19.5246C18.8361 18.8361 18.6473 18.1967 18.3683 17.6066C18.1057 17 17.7364 16.4918 17.2603 16.082C16.8007 15.6722 16.218 15.4508 15.5121 15.4181C15.3644 15.4016 15.1838 15.3361 14.9705 15.2214C14.7735 15.1065 14.5682 14.9836 14.3549 14.8525C14.1415 14.7213 13.928 14.6066 13.7147 14.5082C13.5177 14.3935 13.3371 14.3361 13.173 14.3361C13.0252 14.3361 12.8857 14.3688 12.7544 14.4345C12.6231 14.4836 12.4917 14.5492 12.3604 14.6312C12.2291 14.6967 12.0978 14.7623 11.9664 14.8279C11.8352 14.877 11.6874 14.9016 11.5233 14.9016C11.2442 14.9016 10.9734 14.8853 10.7107 14.8525C10.4645 14.8196 10.2019 14.8033 9.92282 14.8033C9.10205 14.8033 8.35518 15.0492 7.68222 15.541C7.02559 16.0328 6.45928 16.6475 5.98324 17.3853C5.5072 18.1065 5.13787 18.8934 4.87523 19.7459C4.6126 20.5819 4.48127 21.3524 4.48127 22.0573C4.48127 22.3524 4.49769 22.6475 4.53052 22.9426C4.57976 23.2377 4.60439 23.5327 4.60439 23.8278C4.60439 24.0246 4.54693 24.1885 4.43203 24.3196C4.33354 24.4344 4.21043 24.5574 4.06269 24.6885C3.93137 24.8033 3.80826 24.9344 3.69336 25.082C3.59487 25.2131 3.54562 25.377 3.54562 25.5738H3.7426C4.16939 25.5738 4.49769 25.6558 4.7275 25.8197C4.97372 25.9672 5.15429 26.1721 5.26919 26.4345C5.40051 26.6803 5.499 26.9672 5.56466 27.2951C5.64674 27.623 5.73702 27.959 5.83551 28.3033C5.934 28.6311 6.07352 28.9508 6.25409 29.2623C6.45107 29.5737 6.73012 29.8525 7.09125 30.0984C7.35388 30.2787 7.64117 30.4754 7.95303 30.6885C8.28136 30.9016 8.6178 31.0983 8.96259 31.2787C9.32369 31.459 9.6766 31.6148 10.0213 31.7459C10.3824 31.8607 10.7271 31.918 11.0555 31.918C11.5808 31.918 12.0978 31.8443 12.6067 31.6967C13.1155 31.5328 13.6326 31.4509 14.1579 31.4509C14.3549 31.4509 14.5682 31.4754 14.7981 31.5246C15.1756 30.9344 15.6106 30.3771 16.103 29.8525C16.6119 29.3115 17.2274 28.9344 17.9497 28.7213L17.9251 28.1803C17.9251 27.6393 17.9826 27.1147 18.0975 26.6066C18.2288 26.0819 18.3683 25.5492 18.5161 25.0082C18.6637 24.4673 18.7951 23.9098 18.91 23.336C19.0413 22.7623 19.107 22.1393 19.107 21.4672ZM72.9069 33.5655C72.9069 33.6803 72.8823 33.8606 72.833 34.1066C72.8002 34.3361 72.7345 34.5656 72.636 34.7951C72.554 35.0409 72.4555 35.2541 72.3405 35.4344C72.2257 35.6147 72.0944 35.7049 71.9466 35.7049C71.7661 35.7049 71.5855 35.6639 71.405 35.582C71.2244 35.5164 71.0438 35.4836 70.8632 35.4836C70.2887 35.4836 69.7224 35.5327 69.1643 35.6311C68.6062 35.7459 68.0399 35.8033 67.4654 35.8033C67.1863 35.8033 66.9236 35.7623 66.6775 35.6804C66.4312 35.6147 66.185 35.541 65.9387 35.459C65.709 35.377 65.4709 35.2951 65.2247 35.2131C64.9785 35.1311 64.7241 35.0738 64.4614 35.0409C64.0674 35.0082 63.7638 34.8525 63.5504 34.5738C63.3534 34.2951 63.2549 33.9672 63.2549 33.5902C63.2549 33.1475 63.3698 32.7786 63.5996 32.4836C63.8459 32.1721 64.1167 31.8525 64.4122 31.5246C64.7077 31.1803 64.9703 30.7705 65.2001 30.2951C65.4463 29.8196 65.5694 29.1803 65.5694 28.3771C65.5694 26.7705 65.4956 25.1803 65.3478 23.6066C65.2165 22.0164 65.1508 20.418 65.1508 18.8114V18.0738C65.1508 17.7295 65.1344 17.377 65.1016 17.0164C65.0688 16.6558 64.9867 16.3361 64.8553 16.0573C64.7241 15.7623 64.5353 15.5246 64.2891 15.3443C64.0428 15.1639 63.6981 15.0737 63.2549 15.0737C62.8773 15.3033 62.5162 15.5574 62.1715 15.8361C61.8268 16.0983 61.5232 16.4099 61.2605 16.7705C61.1456 16.9344 61.0225 17.2049 60.8912 17.582C60.7598 17.959 60.6367 18.3934 60.5218 18.8852C60.4069 19.377 60.292 19.9017 60.1772 20.459C60.0787 21.0164 59.9884 21.5492 59.9063 22.0573C59.8242 22.5656 59.7585 23.0328 59.7093 23.459C59.66 23.8853 59.6354 24.2049 59.6354 24.418C59.6354 25.041 59.6764 25.6721 59.7585 26.3115C59.857 26.9345 59.9063 27.5574 59.9063 28.1803C59.9063 28.5082 59.8734 28.8279 59.8078 29.1393C59.7585 29.4344 59.7339 29.7459 59.7339 30.0738C59.7339 30.2049 59.7421 30.3361 59.7585 30.4673C59.7749 30.5983 59.8242 30.7295 59.9063 30.8607C60.0869 30.9591 60.3002 31.082 60.5465 31.2295C60.8091 31.3771 61.0471 31.5492 61.2605 31.7459C61.4903 31.9262 61.6791 32.1229 61.8268 32.3361C61.9909 32.5492 62.073 32.7705 62.073 33C62.073 33.4754 61.9006 33.8606 61.556 34.1557C61.2112 34.4508 60.8091 34.5984 60.3495 34.5984C60.2346 34.5984 60.1278 34.5901 60.0293 34.5738C59.9308 34.5574 59.8242 34.5491 59.7093 34.5491C59.5452 34.5491 59.381 34.582 59.2168 34.6475C59.0691 34.6968 58.9132 34.7541 58.749 34.8197C58.5849 34.9017 58.4125 34.9672 58.2319 35.0164C58.0678 35.0819 57.8872 35.1148 57.6903 35.1148C57.1814 35.1148 56.689 35.0492 56.2129 34.918C55.7369 34.7869 55.2444 34.7213 54.7356 34.7213C54.5878 34.7213 54.4565 34.6639 54.3416 34.5491C54.2267 34.418 54.1282 34.2705 54.0461 34.1066C53.9805 33.9426 53.9313 33.7705 53.8984 33.5902C53.8656 33.4098 53.8492 33.2623 53.8492 33.1475C53.8492 32.8525 53.9066 32.6312 54.0215 32.4836C54.1528 32.3197 54.3088 32.1803 54.4893 32.0656C54.6699 31.9508 54.8669 31.836 55.0803 31.7213C55.3101 31.5901 55.5153 31.418 55.6958 31.2049C55.8764 30.9918 56.0241 30.7049 56.1391 30.3443C56.2704 29.9672 56.3361 29.4754 56.3361 28.8689C56.3361 28.623 56.3032 28.3852 56.2376 28.1557C56.1719 27.9262 56.098 27.6967 56.0159 27.4672C55.9503 27.2377 55.8846 27.0082 55.819 26.7787C55.7697 26.5492 55.7451 26.3115 55.7451 26.0656C55.7451 25.6393 55.7943 25.2131 55.8928 24.7869C55.9913 24.3606 56.0406 23.9345 56.0406 23.5082C56.0406 23.1967 55.9831 22.9017 55.8682 22.623C55.7533 22.3442 55.6958 22.0573 55.6958 21.7623C55.6958 21.5492 55.7533 21.3606 55.8682 21.1967C55.9995 21.0328 56.0652 20.8443 56.0652 20.6312C56.0652 20.5656 56.0488 20.4426 56.0159 20.2623C55.9831 20.0819 55.9421 19.877 55.8928 19.6476C55.86 19.4016 55.8271 19.1475 55.7943 18.8852C55.7615 18.623 55.7451 18.3771 55.7451 18.1475C55.7451 17.8525 55.7779 17.5574 55.8436 17.2623C55.9256 16.9672 55.9667 16.6721 55.9667 16.3771C55.9667 16.1967 55.9174 16.0328 55.819 15.8852C55.7369 15.7213 55.622 15.582 55.4742 15.4672C55.3265 15.3361 55.1624 15.2377 54.9818 15.1721C54.8012 15.1065 54.6289 15.0737 54.4648 15.0737C54.1857 15.0737 53.9148 15.1312 53.6522 15.2459C53.3896 15.3443 53.1433 15.4754 52.9135 15.6393C52.6837 15.8033 52.4621 15.9836 52.2487 16.1803C52.0353 16.377 51.8301 16.5656 51.6331 16.7459C51.5839 16.8935 51.5347 17.0492 51.4854 17.2131C51.4526 17.377 51.3951 17.5246 51.3131 17.6557C51.2474 17.7541 51.1407 17.8361 50.993 17.9016C50.8616 17.9672 50.7222 18.0328 50.5743 18.0984C50.4431 18.1639 50.3199 18.2377 50.205 18.3196C50.1066 18.3853 50.0573 18.4918 50.0573 18.6393C50.0573 18.7705 50.0984 18.8771 50.1804 18.9591C50.2789 19.041 50.3774 19.0983 50.4759 19.1311C50.6401 19.4918 50.7222 19.8279 50.7222 20.1394C50.7222 20.418 50.6893 20.6886 50.6237 20.9508C50.5743 21.2131 50.5087 21.4754 50.4267 21.7377C50.361 21.9836 50.2953 22.2459 50.2297 22.5246C50.1804 22.7869 50.1558 23.0492 50.1558 23.3115L50.1804 25.7705C50.1804 26 50.2051 26.1558 50.2543 26.2377C50.3199 26.3033 50.3856 26.3607 50.4513 26.4098C50.5334 26.4426 50.6072 26.5 50.6728 26.5819C50.7549 26.6639 50.8206 26.8361 50.8698 27.0984C50.9191 27.4263 50.9601 27.7623 50.993 28.1066C51.0422 28.4344 51.0668 28.7623 51.0668 29.0902C51.0668 29.4344 51.034 29.7787 50.9683 30.1229C50.9027 30.4508 50.8698 30.7869 50.8698 31.1311C50.8698 31.4918 50.9191 31.7623 51.0176 31.9427C51.1325 32.1066 51.272 32.2295 51.4362 32.3115C51.6003 32.377 51.7727 32.4262 51.9532 32.459C52.1338 32.4754 52.3062 32.5164 52.4703 32.5819C52.6344 32.6476 52.7658 32.7623 52.8643 32.9263C52.9791 33.0902 53.0366 33.3524 53.0366 33.7132C53.0366 34.041 52.9464 34.3115 52.7658 34.5246C52.5852 34.7213 52.339 34.8607 52.0271 34.9426C50.993 35.2213 49.9178 35.4427 48.8015 35.6066C47.6854 35.7705 46.5938 35.8525 45.5268 35.8525C45.1985 35.8525 44.9195 35.8361 44.6896 35.8033C44.4598 35.7869 44.271 35.7213 44.1234 35.6066C43.992 35.5082 43.8935 35.3443 43.8279 35.1148C43.7622 34.8852 43.7294 34.5574 43.7294 34.1311C43.7294 33.7541 43.8771 33.4181 44.1725 33.123C44.4845 32.8115 44.8128 32.5164 45.1574 32.2377C45.5186 31.959 45.8468 31.6803 46.1423 31.4016C46.4543 31.1065 46.6102 30.7869 46.6102 30.4426C46.6102 30.2951 46.602 30.1639 46.5856 30.0492C46.5856 29.918 46.5856 29.8033 46.5856 29.7049C46.5856 29.5574 46.602 29.4098 46.6348 29.2623C46.6841 29.1148 46.7743 28.9508 46.9057 28.7705C46.9057 28.4099 46.8646 28.0492 46.7826 27.6885C46.7169 27.3279 46.643 26.9754 46.5609 26.6312C46.4788 26.2705 46.3968 25.918 46.3147 25.5738C46.2491 25.2131 46.2162 24.8442 46.2162 24.4673C46.2162 23.6967 46.2819 22.9426 46.4132 22.205C46.5609 21.4672 46.6348 20.7131 46.6348 19.9427C46.6348 19.5164 46.6184 19.0983 46.5856 18.6885C46.5691 18.2787 46.5445 17.8606 46.5117 17.4344C46.4624 16.9426 46.405 16.5491 46.3393 16.2541C46.2737 15.9426 46.167 15.6803 46.0192 15.4672C45.8879 15.2541 45.6909 15.0737 45.4283 14.9263C45.1821 14.7623 44.8292 14.5737 44.3695 14.3607C44.1069 14.2295 43.8689 14.0574 43.6555 13.8443C43.4585 13.6311 43.36 13.3689 43.36 13.0574C43.36 12.7131 43.4339 12.4754 43.5816 12.3443C43.7458 12.1967 43.9264 12.0902 44.1234 12.0246C44.3367 11.9426 44.5419 11.8688 44.7389 11.8033C44.9359 11.7377 45.0754 11.6066 45.1574 11.4098C45.2231 11.2623 45.2806 11.1803 45.3298 11.1639C45.3954 11.1311 45.5104 11.1148 45.6745 11.1148C46.1177 11.1148 46.5445 11.1886 46.9549 11.336C47.3652 11.4672 47.7592 11.6147 48.1368 11.7787C48.5143 11.9262 48.8754 12.0738 49.2202 12.2213C49.5813 12.3524 49.926 12.418 50.2543 12.418C50.599 12.418 50.9601 12.3114 51.3377 12.0984C51.7316 11.8688 52.1585 11.6229 52.618 11.3607C53.0776 11.0984 53.5865 10.8607 54.1446 10.6475C54.7192 10.418 55.3676 10.3033 56.0898 10.3033C56.3688 10.3033 56.6561 10.3689 56.9516 10.5C57.2471 10.6311 57.5343 10.7951 57.8134 10.9918C58.0924 11.1886 58.3468 11.4017 58.5767 11.6311C58.8229 11.8606 59.0281 12.082 59.1923 12.2951C59.5862 11.918 60.0458 11.5902 60.5711 11.3115C61.0963 11.0328 61.6462 10.8033 62.2208 10.623C62.7953 10.4426 63.378 10.3115 63.9689 10.2295C64.5599 10.1475 65.1262 10.1066 65.6679 10.1066C66.0783 10.1066 66.4476 10.2213 66.776 10.4508C67.1042 10.6639 67.3915 10.959 67.6377 11.336C67.9003 11.6967 68.1219 12.1065 68.3025 12.5656C68.4994 13.0246 68.6718 13.4836 68.8196 13.9427C68.9837 14.4017 69.1232 14.8525 69.2382 15.2951C69.3531 15.7213 69.4598 16.082 69.5583 16.3771C69.5911 16.459 69.6157 16.541 69.6322 16.623C69.6485 16.7049 69.6567 16.7951 69.6567 16.8935C69.6567 17.1229 69.6239 17.3443 69.5583 17.5574C69.4926 17.7705 69.4187 17.9836 69.3367 18.1967C69.271 18.3934 69.2053 18.5983 69.1397 18.8114C69.074 19.0246 69.0412 19.2459 69.0412 19.4754C69.0412 19.7049 69.0822 19.9262 69.1643 20.1394C69.2628 20.3525 69.312 20.5737 69.312 20.8033C69.312 21.0492 69.2628 21.2869 69.1643 21.5164C69.0658 21.7295 69.0166 21.959 69.0166 22.205C69.0166 22.5328 69.074 22.8442 69.1889 23.1393C69.3202 23.4344 69.3858 23.7459 69.3858 24.0738C69.3858 24.3196 69.3449 24.5574 69.2628 24.7869C69.1971 25 69.115 25.2213 69.0166 25.4509C68.9345 25.6803 68.8524 25.9098 68.7703 26.1394C68.7047 26.3525 68.6718 26.5819 68.6718 26.8279C68.6718 26.9098 68.68 26.9918 68.6964 27.0737C68.7129 27.1394 68.7375 27.2131 68.7703 27.2951L69.7306 29.7049C69.8783 30.0492 70.1246 30.3771 70.4692 30.6885C70.814 31 71.1669 31.3032 71.528 31.5983C71.8891 31.8934 72.2093 32.2049 72.4883 32.5328C72.7674 32.8443 72.9069 33.1885 72.9069 33.5655ZM119 33.5655C119 33.6803 118.976 33.8606 118.926 34.1066C118.894 34.3361 118.827 34.5656 118.729 34.7951C118.647 35.0409 118.549 35.2541 118.433 35.4344C118.318 35.6147 118.188 35.7049 118.04 35.7049C117.859 35.7049 117.679 35.6639 117.498 35.582C117.318 35.5164 117.137 35.4836 116.956 35.4836C116.382 35.4836 115.815 35.5327 115.257 35.6311C114.7 35.7459 114.133 35.8033 113.559 35.8033C113.28 35.8033 113.017 35.7623 112.771 35.6804C112.524 35.6147 112.278 35.541 112.032 35.459C111.802 35.377 111.564 35.2951 111.318 35.2131C111.071 35.1311 110.817 35.0738 110.554 35.0409C110.16 35.0082 109.857 34.8525 109.643 34.5738C109.447 34.2951 109.348 33.9672 109.348 33.5902C109.348 33.1475 109.463 32.7786 109.692 32.4836C109.939 32.1721 110.21 31.8525 110.505 31.5246C110.801 31.1803 111.063 30.7705 111.293 30.2951C111.539 29.8196 111.662 29.1803 111.662 28.3771C111.662 26.7705 111.589 25.1803 111.441 23.6066C111.31 22.0164 111.244 20.418 111.244 18.8114V18.0738C111.244 17.7295 111.227 17.377 111.195 17.0164C111.162 16.6558 111.08 16.3361 110.948 16.0573C110.817 15.7623 110.628 15.5246 110.383 15.3443C110.136 15.1639 109.792 15.0737 109.348 15.0737C108.971 15.3033 108.61 15.5574 108.265 15.8361C107.92 16.0983 107.616 16.4099 107.354 16.7705C107.239 16.9344 107.116 17.2049 106.984 17.582C106.853 17.959 106.73 18.3934 106.615 18.8852C106.5 19.377 106.385 19.9017 106.27 20.459C106.172 21.0164 106.081 21.5492 105.999 22.0573C105.917 22.5656 105.852 23.0328 105.802 23.459C105.753 23.8853 105.728 24.2049 105.728 24.418C105.728 25.041 105.769 25.6721 105.852 26.3115C105.95 26.9345 105.999 27.5574 105.999 28.1803C105.999 28.5082 105.966 28.8279 105.901 29.1393C105.852 29.4344 105.827 29.7459 105.827 30.0738C105.827 30.2049 105.835 30.3361 105.852 30.4673C105.868 30.5983 105.917 30.7295 105.999 30.8607C106.18 30.9591 106.393 31.082 106.64 31.2295C106.902 31.3771 107.14 31.5492 107.354 31.7459C107.583 31.9262 107.772 32.1229 107.92 32.3361C108.084 32.5492 108.166 32.7705 108.166 33C108.166 33.4754 107.994 33.8606 107.649 34.1557C107.304 34.4508 106.902 34.5984 106.443 34.5984C106.328 34.5984 106.221 34.5901 106.122 34.5738C106.024 34.5574 105.917 34.5491 105.802 34.5491C105.639 34.5491 105.474 34.582 105.31 34.6475C105.162 34.6968 105.007 34.7541 104.842 34.8197C104.678 34.9017 104.505 34.9672 104.325 35.0164C104.161 35.0819 103.98 35.1148 103.783 35.1148C103.275 35.1148 102.782 35.0492 102.306 34.918C101.83 34.7869 101.337 34.7213 100.828 34.7213C100.681 34.7213 100.549 34.6639 100.434 34.5491C100.32 34.418 100.222 34.2705 100.14 34.1066C100.073 33.9426 100.025 33.7705 99.9915 33.5902C99.9584 33.4098 99.9427 33.2623 99.9427 33.1475C99.9427 32.8525 99.9994 32.6312 100.114 32.4836C100.246 32.3197 100.402 32.1803 100.582 32.0656C100.763 31.9508 100.96 31.836 101.173 31.7213C101.403 31.5901 101.608 31.418 101.789 31.2049C101.969 30.9918 102.117 30.7049 102.232 30.3443C102.363 29.9672 102.429 29.4754 102.429 28.8689C102.429 28.623 102.396 28.3852 102.331 28.1557C102.265 27.9262 102.191 27.6967 102.109 27.4672C102.043 27.2377 101.978 27.0082 101.912 26.7787C101.863 26.5492 101.838 26.3115 101.838 26.0656C101.838 25.6393 101.887 25.2131 101.986 24.7869C102.084 24.3606 102.134 23.9345 102.134 23.5082C102.134 23.1967 102.076 22.9017 101.961 22.623C101.846 22.3442 101.789 22.0573 101.789 21.7623C101.789 21.5492 101.846 21.3606 101.961 21.1967C102.093 21.0328 102.158 20.8443 102.158 20.6312C102.158 20.5656 102.142 20.4426 102.109 20.2623C102.076 20.0819 102.035 19.877 101.986 19.6476C101.953 19.4016 101.92 19.1475 101.887 18.8852C101.855 18.623 101.838 18.3771 101.838 18.1475C101.838 17.8525 101.871 17.5574 101.937 17.2623C102.019 16.9672 102.06 16.6721 102.06 16.3771C102.06 16.1967 102.01 16.0328 101.912 15.8852C101.83 15.7213 101.715 15.582 101.567 15.4672C101.419 15.3361 101.255 15.2377 101.075 15.1721C100.894 15.1065 100.722 15.0737 100.558 15.0737C100.279 15.0737 100.008 15.1312 99.7457 15.2459C99.4825 15.3443 99.2367 15.4754 99.0066 15.6393C98.7766 15.8033 98.5551 15.9836 98.3416 16.1803C98.1281 16.377 97.9232 16.5656 97.7263 16.7459C97.6766 16.8935 97.6278 17.0492 97.5789 17.2131C97.5458 17.377 97.4883 17.5246 97.4064 17.6557C97.3402 17.7541 97.2338 17.8361 97.0857 17.9016C96.9549 17.9672 96.8154 18.0328 96.6673 18.0984C96.5365 18.1639 96.4128 18.2377 96.2978 18.3196C96.2001 18.3853 96.1504 18.4918 96.1504 18.6393C96.1504 18.7705 96.1914 18.8771 96.2733 18.9591C96.3718 19.041 96.4703 19.0983 96.5688 19.1311C96.7335 19.4918 96.8154 19.8279 96.8154 20.1394C96.8154 20.418 96.7823 20.6886 96.7169 20.9508C96.6673 21.2131 96.6019 21.4754 96.52 21.7377C96.4538 21.9836 96.3884 22.2459 96.323 22.5246C96.2733 22.7869 96.2489 23.0492 96.2489 23.3115L96.2733 25.7705C96.2733 26 96.2978 26.1558 96.3474 26.2377C96.4128 26.3033 96.479 26.3607 96.5444 26.4098C96.6263 26.4426 96.7004 26.5 96.7658 26.5819C96.8477 26.6639 96.9139 26.8361 96.9628 27.0984C97.0124 27.4263 97.0534 27.7623 97.0857 28.1066C97.1353 28.4344 97.1597 28.7623 97.1597 29.0902C97.1597 29.4344 97.1274 29.7787 97.0613 30.1229C96.9959 30.4508 96.9628 30.7869 96.9628 31.1311C96.9628 31.4918 97.0124 31.7623 97.1109 31.9427C97.2259 32.1066 97.3654 32.2295 97.5293 32.3115C97.6932 32.377 97.8657 32.4262 98.0462 32.459C98.2266 32.4754 98.3991 32.5164 98.5638 32.5819C98.7277 32.6476 98.8585 32.7623 98.9578 32.9263C99.072 33.0902 99.1295 33.3524 99.1295 33.7132C99.1295 34.041 99.0397 34.3115 98.8585 34.5246C98.6781 34.7213 98.4322 34.8607 98.1202 34.9426C97.0857 35.2213 96.011 35.4427 94.8945 35.6066C93.7788 35.7705 92.6867 35.8525 91.6199 35.8525C91.2913 35.8525 91.0124 35.8361 90.7823 35.8033C90.5531 35.7869 90.364 35.7213 90.2166 35.6066C90.085 35.5082 89.9866 35.3443 89.9212 35.1148C89.855 34.8852 89.8227 34.5574 89.8227 34.1311C89.8227 33.7541 89.97 33.4181 90.2655 33.123C90.5775 32.8115 90.9061 32.5164 91.2504 32.2377C91.612 31.959 91.9398 31.6803 92.2353 31.4016C92.5473 31.1065 92.7033 30.7869 92.7033 30.4426C92.7033 30.2951 92.6954 30.1639 92.6789 30.0492C92.6789 29.918 92.6789 29.8033 92.6789 29.7049C92.6789 29.5574 92.6954 29.4098 92.7277 29.2623C92.7774 29.1148 92.8672 28.9508 92.9988 28.7705C92.9988 28.4099 92.9578 28.0492 92.8758 27.6885C92.8097 27.3279 92.7364 26.9754 92.6544 26.6312C92.5717 26.2705 92.4898 25.918 92.4078 25.5738C92.3424 25.2131 92.3093 24.8442 92.3093 24.4673C92.3093 23.6967 92.3747 22.9426 92.5063 22.205C92.6544 21.4672 92.7277 20.7131 92.7277 19.9427C92.7277 19.5164 92.7112 19.0983 92.6789 18.6885C92.6623 18.2787 92.6379 17.8606 92.6048 17.4344C92.5552 16.9426 92.4984 16.5491 92.4322 16.2541C92.3668 15.9426 92.2605 15.6803 92.1124 15.4672C91.9808 15.2541 91.7838 15.0737 91.5214 14.9263C91.2756 14.7623 90.9226 14.5737 90.4625 14.3607C90.2001 14.2295 89.9621 14.0574 89.7486 13.8443C89.5516 13.6311 89.4531 13.3689 89.4531 13.0574C89.4531 12.7131 89.5272 12.4754 89.6745 12.3443C89.8392 12.1967 90.0196 12.0902 90.2166 12.0246C90.4302 11.9426 90.635 11.8688 90.832 11.8033C91.029 11.7377 91.1684 11.6066 91.2504 11.4098C91.3166 11.2623 91.3733 11.1803 91.4229 11.1639C91.4883 11.1311 91.6034 11.1148 91.7672 11.1148C92.2108 11.1148 92.6379 11.1886 93.0484 11.336C93.4581 11.4672 93.8521 11.6147 94.2303 11.7787C94.6077 11.9262 94.9685 12.0738 95.3129 12.2213C95.6745 12.3524 96.0188 12.418 96.3474 12.418C96.6917 12.418 97.0534 12.3114 97.4308 12.0984C97.8248 11.8688 98.2518 11.6229 98.7112 11.3607C99.1705 11.0984 99.6795 10.8607 100.237 10.6475C100.813 10.418 101.461 10.3033 102.183 10.3033C102.462 10.3033 102.749 10.3689 103.045 10.5C103.34 10.6311 103.628 10.7951 103.907 10.9918C104.186 11.1886 104.44 11.4017 104.67 11.6311C104.916 11.8606 105.121 12.082 105.286 12.2951C105.679 11.918 106.139 11.5902 106.664 11.3115C107.189 11.0328 107.739 10.8033 108.313 10.623C108.889 10.4426 109.471 10.3115 110.062 10.2295C110.653 10.1475 111.219 10.1066 111.761 10.1066C112.171 10.1066 112.541 10.2213 112.869 10.4508C113.197 10.6639 113.485 10.959 113.731 11.336C113.994 11.6967 114.215 12.1065 114.395 12.5656C114.592 13.0246 114.765 13.4836 114.913 13.9427C115.077 14.4017 115.216 14.8525 115.331 15.2951C115.446 15.7213 115.553 16.082 115.651 16.3771C115.684 16.459 115.709 16.541 115.725 16.623C115.742 16.7049 115.75 16.7951 115.75 16.8935C115.75 17.1229 115.717 17.3443 115.651 17.5574C115.586 17.7705 115.512 17.9836 115.43 18.1967C115.364 18.3934 115.298 18.5983 115.233 18.8114C115.167 19.0246 115.134 19.2459 115.134 19.4754C115.134 19.7049 115.175 19.9262 115.257 20.1394C115.356 20.3525 115.405 20.5737 115.405 20.8033C115.405 21.0492 115.356 21.2869 115.257 21.5164C115.159 21.7295 115.11 21.959 115.11 22.205C115.11 22.5328 115.167 22.8442 115.282 23.1393C115.413 23.4344 115.479 23.7459 115.479 24.0738C115.479 24.3196 115.438 24.5574 115.356 24.7869C115.29 25 115.208 25.2213 115.11 25.4509C115.027 25.6803 114.945 25.9098 114.863 26.1394C114.798 26.3525 114.765 26.5819 114.765 26.8279C114.765 26.9098 114.773 26.9918 114.789 27.0737C114.806 27.1394 114.83 27.2131 114.863 27.2951L115.824 29.7049C115.971 30.0492 116.218 30.3771 116.562 30.6885C116.907 31 117.26 31.3032 117.621 31.5983C117.982 31.8934 118.303 32.2049 118.582 32.5328C118.861 32.8443 119 33.1885 119 33.5655Z" fill="#F6F4EF"/>
</svg>
